<svg width="22" height="23" viewBox="0 0 22 23" fill="none" xmlns="http://www.w3.org/2000/svg">
<path d="M12.1602 7.05234L16.2852 11.1773C16.4141 11.3062 16.5 11.4781 16.5 11.65C16.5 11.8648 16.4141 12.0367 16.2852 12.1656L12.1602 16.2906C11.9023 16.5484 11.4297 16.5484 11.1719 16.2906C10.9141 16.0328 10.9141 15.5602 11.1719 15.3023L14.1367 12.3375H6.1875C5.80078 12.3375 5.5 12.0367 5.5 11.65C5.5 11.3062 5.80078 10.9625 6.1875 10.9625H14.1367L11.1719 8.04062C10.9141 7.78281 10.9141 7.31015 11.1719 7.05234C11.4297 6.79453 11.9023 6.79453 12.1602 7.05234ZM11 0.649994C17.0586 0.649994 22 5.5914 22 11.65C22 17.7516 17.0586 22.65 11 22.65C4.89844 22.65 0 17.7516 0 11.65C0 5.5914 4.89844 0.649994 11 0.649994ZM11 21.275C16.2852 21.275 20.625 16.9781 20.625 11.65C20.625 6.36484 16.2852 2.02499 11 2.02499C5.67188 2.02499 1.375 6.36484 1.375 11.65C1.375 16.9781 5.67188 21.275 11 21.275Z" fill="#F49F6C"/>
</svg>
